# xmcd CD database file
# Copyright (C) 1997 Ti Kan
# 
# Track frame offsets:
#     150
#     14670
#     30240
#     46840
#     64950
#     83900
#     97475
#     116065
#     132477
#     152590
#     169925
# 
# Disc length: 2497 seconds
# 
# Revision: 1
# Processed by: cddbd v1.4b41PL1 Copyright (c) Steve Scherf et al.
# Submitted via: DiscPlay 4.0.3
# 
DISCID=9509bf0b
DTITLE=Drew Nelson - Mr. Nelson's Neighborhood
DYEAR=1900
DGENRE=
TTITLE0=Mr. Nelson's Neighborhood
TTITLE1=I'm In Love
TTITLE2=I Can't Stand It
TTITLE3=It Feels So Right
TTITLE4=Someone's Gonna Get Hurt
TTITLE5=Doncha Darken My Door
TTITLE6=Gone But Not Forgotten
TTITLE7=Have A Merry Christmas
TTITLE8=Time Drifts Away
TTITLE9=Dixie At The Diner
TTITLE10=Shake The Turtle
EXTD=
EXTT0=
EXTT1=
EXTT2=
EXTT3=
EXTT4=
EXTT5=
EXTT6=
EXTT7=
EXTT8=
EXTT9=
EXTT10=
PLAYORDER=
